<svg id="Groupe_2" data-name="Groupe 2" xmlns="http://www.w3.org/2000/svg" width="450.093" height="153.406" viewBox="0 0 450.093 153.406">
  <defs>
    <style>
      .cls-1 {
        fill: #307633;
      }

      .cls-1, .cls-2 {
        fill-rule: evenodd;
      }

      .cls-2 {
        fill: none;
        stroke: #307633;
        stroke-width: 10px;
      }
    </style>
  </defs>
  <path id="Forme_1_copie_3" data-name="Forme 1 copie 3" class="cls-1" d="M462.775,237.968s-17.616-105.456,114.536-84.222c0,0-8.6,113.676-106.568,90.136,0,0-14.156,17.585-40.973,14.126,0,0,6.733-3.813-3.561-9.538,0,0,37.145,2.912,78.567-31.715s1.565-2.033,1.565-2.033S474.257,235.374,462.775,237.968Z" transform="translate(-127.219 -150.938)"/>
  <path id="Forme_1_copie_4" data-name="Forme 1 copie 4" class="cls-1" d="M398.339,274.42s36.356-44.676,74.835,16.307c0,0-49.016,37-74.388-10.98,0,0-12.149.54-20.3-11.533,0,0,3.938,1.364,2.587-4.836,0,0,12.051,16.053,40.8,20.466s1.379-.092,1.379-0.092S403.477,278.138,398.339,274.42Z" transform="translate(-127.219 -150.938)"/>
  <path id="Forme_1_copie_5" data-name="Forme 1 copie 5" class="cls-1" d="M274.1,278.644S324.844,305.9,336.9,234.8c0,0-59.481-15.3-64.439,38.753,0,0-11.422,4.176-14.3,18.456,0,0,3.111-2.774,4.249,3.468,0,0,4.947-19.453,29.786-34.587s1.308-.446,1.308-0.446S277.41,273.236,274.1,278.644Z" transform="translate(-127.219 -150.938)"/>
  <path id="Forme_2" data-name="Forme 2" class="cls-2" d="M132,273s7.694-24.985,66-4,105.731,42.735,143,14,102-30,102-30" transform="translate(-127.219 -150.938)"/>
</svg>
